<?xml version="1.0" standalone="no"?>
<!DOCTYPE svg PUBLIC "-//W3C//DTD SVG 20010904//EN"
 "http://www.w3.org/TR/2001/REC-SVG-20010904/DTD/svg10.dtd">
<svg version="1.0" xmlns="http://www.w3.org/2000/svg"
 width="300.000000pt" height="300.000000pt" viewBox="0 0 300.000000 300.000000"
 preserveAspectRatio="xMidYMid meet">
<metadata>
Created by potrace 1.14, written by Peter Selinger 2001-2017
</metadata>
<g transform="translate(0.000000,300.000000) scale(0.100000,-0.100000)"
fill="#000000" stroke="none">
<path d="M1342 2898 c-7 -7 -12 -18 -12 -26 0 -9 -6 -12 -16 -8 -9 3 -18 6
-20 6 -3 0 -3 4 0 8 2 4 -6 8 -19 8 -13 0 -21 -4 -19 -8 3 -5 11 -5 17 -2 9 5
9 3 0 -6 -7 -7 -23 -14 -35 -16 -13 -1 -23 -3 -23 -4 0 -1 -10 -3 -22 -4 -13
-2 -20 2 -17 8 3 6 -1 3 -9 -6 -16 -20 -28 -14 -20 10 4 12 1 11 -10 -3 -8
-11 -13 -23 -11 -27 7 -11 -4 -10 -28 3 -13 7 -18 7 -14 1 3 -6 2 -13 -4 -17
-9 -6 -14 8 -11 28 1 5 -3 6 -8 3 -5 -4 -8 -15 -6 -26 2 -13 0 -18 -7 -14 -5
4 -14 0 -19 -7 -6 -10 -9 -11 -9 -1 0 6 -5 12 -11 12 -5 0 -7 -4 -4 -10 4 -6
-5 -10 -20 -10 -18 0 -24 -4 -19 -12 5 -9 2 -8 -9 1 -10 8 -20 11 -24 7 -3 -3
-1 -6 6 -6 7 0 10 -4 6 -10 -3 -5 -12 -7 -20 -4 -8 4 -18 -1 -21 -10 -3 -9 -9
-14 -13 -12 -4 3 -12 -3 -18 -13 -9 -14 -8 -25 2 -44 10 -19 10 -27 2 -31 -7
-2 -5 -5 4 -5 8 -1 26 -23 40 -51 13 -27 28 -50 32 -50 5 0 5 -4 2 -10 -3 -5
-1 -10 5 -10 7 0 9 -7 6 -15 -3 -9 1 -18 10 -22 9 -3 14 -13 11 -24 -3 -11 -2
-17 3 -14 4 3 16 -7 25 -22 15 -22 16 -30 5 -47 -12 -19 -12 -20 3 -8 13 11
17 10 25 -5 5 -10 7 -24 5 -31 -3 -7 1 -11 9 -10 8 2 13 -6 12 -19 0 -12 3
-20 7 -17 11 7 32 -35 25 -52 -3 -7 -1 -13 5 -11 10 2 83 -117 96 -155 3 -10
9 -18 13 -18 5 0 6 -10 3 -22 -3 -14 -1 -18 4 -11 6 8 12 4 20 -13 6 -13 7
-22 2 -18 -5 3 -6 -2 -3 -10 3 -9 10 -13 15 -10 8 5 13 -9 10 -28 0 -5 3 -8 9
-8 5 0 14 -10 21 -21 9 -17 8 -20 -3 -13 -9 6 -9 2 2 -12 8 -10 18 -21 21 -24
14 -11 39 -71 34 -80 -3 -5 0 -12 6 -16 8 -5 9 -3 4 7 -8 12 -6 12 8 0 14 -11
15 -17 5 -30 -7 -9 -9 -13 -4 -9 13 11 39 -20 39 -47 0 -13 5 -23 11 -22 6 1
21 -18 33 -43 13 -24 23 -36 23 -27 0 10 7 20 15 23 9 4 14 11 13 18 -2 15 23
66 34 66 4 0 8 7 8 15 0 8 4 15 10 15 5 0 6 8 3 18 -6 15 -5 16 12 2 10 -8 16
-10 12 -3 -4 7 0 17 10 23 17 11 17 11 1 6 -10 -3 -18 -1 -18 4 0 6 8 10 18
10 13 0 14 2 4 9 -10 6 -10 10 2 21 9 7 13 16 11 21 -3 4 4 13 15 19 13 7 19
18 16 26 -3 8 1 14 9 14 8 0 15 5 15 11 0 5 -4 7 -10 4 -6 -3 -7 1 -4 9 3 9
11 13 17 9 6 -4 8 0 4 10 -4 11 -1 17 8 17 7 0 17 5 21 12 4 7 3 8 -4 4 -18
-11 -14 9 8 36 10 14 17 28 14 30 -2 3 2 11 11 18 8 7 15 19 15 27 0 8 6 13
13 10 8 -3 14 3 14 14 1 11 -3 17 -9 13 -5 -4 -2 6 7 20 10 15 24 25 31 22 7
-3 16 0 20 6 4 6 3 8 -4 4 -6 -3 -13 -2 -17 4 -3 5 -2 10 4 10 6 0 7 7 4 17
-4 9 -2 14 3 11 5 -3 14 0 21 7 7 8 8 15 3 17 -5 2 -2 12 7 23 13 17 15 17 9
2 -3 -11 -2 -16 5 -11 6 3 8 17 4 31 -4 16 -2 22 5 18 6 -3 10 3 10 14 0 12 5
21 11 21 5 0 7 -5 3 -11 -5 -8 -1 -8 14 0 12 6 24 17 28 24 5 9 4 9 -7 0 -17
-17 -26 -16 -32 1 -4 10 -1 13 9 9 10 -4 12 0 8 11 -4 9 -1 16 6 16 7 0 10 7
6 16 -5 14 -4 15 9 4 13 -11 14 -10 9 5 -6 14 -4 16 7 10 12 -8 12 -6 0 8 -11
15 -11 17 2 17 8 0 18 7 21 16 6 15 4 15 -11 3 -17 -13 -17 -13 0 7 9 11 14
24 10 28 -4 4 0 4 9 1 9 -4 19 -1 24 6 4 8 3 10 -4 5 -7 -4 -12 -1 -12 9 0 11
5 15 14 12 10 -4 13 -1 9 9 -8 22 17 66 31 54 8 -6 12 -3 12 10 0 10 -4 16 -8
14 -4 -3 -5 2 -2 11 5 13 9 13 22 3 13 -11 14 -10 4 8 -9 17 -9 24 2 33 7 6
17 7 22 3 4 -4 2 1 -5 11 -12 15 -12 17 4 11 15 -6 16 -5 4 15 -8 11 -19 21
-26 21 -7 0 -13 5 -13 11 0 5 -4 7 -10 4 -5 -3 -7 0 -4 8 3 8 -2 17 -11 21
-10 4 -14 2 -9 -5 4 -7 1 -10 -7 -7 -8 3 -14 10 -14 16 0 16 -11 19 -22 8 -5
-5 -2 -6 6 -1 9 5 12 4 7 -3 -4 -8 -17 -7 -41 4 -19 8 -35 11 -35 8 0 -4 -7 0
-17 7 -9 8 -19 13 -22 12 -3 -1 -8 1 -11 4 -3 4 1 3 8 -1 6 -4 12 -2 12 3 0
14 -13 14 -27 0 -8 -8 -13 -7 -18 2 -6 8 -4 10 5 4 9 -5 11 -4 6 3 -5 8 -15 8
-32 2 -36 -14 -41 -12 -18 5 18 14 17 14 -9 5 -39 -14 -45 -12 -22 6 20 16 20
16 -2 9 -14 -4 -23 -2 -23 4 0 6 -5 11 -12 11 -9 0 -9 -3 0 -12 26 -26 10 -30
-17 -4 -19 18 -31 24 -36 17 -3 -7 -1 -10 6 -9 6 2 14 -3 16 -10 6 -15 -25 -5
-46 15 -11 12 -17 11 -38 -3 -14 -9 -22 -11 -19 -5 7 11 2 13 -34 13 -42 0
-51 -2 -45 -12 3 -6 -1 -7 -9 -4 -9 3 -14 9 -11 13 2 4 -2 8 -10 8 -8 0 -15
-4 -15 -9 0 -5 -9 -4 -20 2 -15 8 -20 8 -20 -1 0 -8 -5 -7 -17 2 -14 12 -16
12 -11 -1 4 -12 -3 -15 -33 -15 -22 0 -37 4 -35 10 2 6 9 9 15 7 7 -1 10 2 6
8 -8 13 -8 13 -23 -2z m312 -16 c3 -5 -1 -9 -9 -9 -8 0 -12 4 -9 9 3 4 7 8 9
8 2 0 6 -4 9 -8z"/>
<path d="M1201 2871 c-8 -5 -9 -11 -3 -15 5 -3 12 1 16 9 6 17 6 18 -13 6z"/>
<path d="M1905 2840 c-3 -5 -5 -10 -3 -11 19 -4 51 -9 47 -6 -2 1 -11 8 -21
15 -11 9 -18 10 -23 2z"/>
<path d="M2060 2781 c0 -10 19 -25 25 -20 1 2 -3 10 -11 17 -8 7 -14 8 -14 3z"/>
<path d="M2244 2667 c4 -13 0 -20 -14 -24 -11 -3 -17 -9 -14 -14 3 -5 -3 -9
-13 -9 -15 0 -16 -2 -3 -10 13 -9 7 -14 -12 -11 -4 0 -4 -7 -1 -16 4 -9 2 -14
-4 -10 -5 3 -9 -4 -9 -16 1 -12 -4 -21 -10 -20 -6 1 -10 -8 -10 -20 1 -15 -5
-22 -17 -21 -14 2 -15 -1 -6 -12 9 -11 8 -14 -4 -14 -9 0 -19 -4 -22 -10 -4
-6 1 -7 10 -3 14 5 13 -1 -6 -38 -12 -24 -32 -60 -45 -80 -13 -20 -20 -40 -16
-45 4 -4 1 -4 -5 0 -9 5 -13 0 -13 -13 0 -12 -5 -21 -11 -21 -5 0 -7 5 -4 10
10 16 -1 11 -16 -7 -10 -11 -10 -14 -1 -9 7 4 12 2 12 -8 0 -8 -5 -18 -12 -22
-7 -5 -8 -3 -3 7 8 12 6 12 -8 0 -13 -10 -14 -18 -6 -33 9 -16 7 -20 -10 -25
-16 -4 -19 -9 -11 -18 8 -10 3 -18 -17 -35 -15 -12 -22 -19 -15 -15 6 3 12 1
12 -4 0 -6 -5 -11 -11 -11 -5 0 -7 -4 -4 -10 3 -5 2 -10 -4 -10 -5 0 -11 3
-14 8 -2 4 -2 1 0 -6 4 -17 -21 -54 -30 -45 -4 3 -7 1 -7 -5 0 -7 5 -12 11
-12 5 0 7 -5 4 -11 -4 -6 -13 -8 -20 -5 -10 3 -12 -2 -9 -20 4 -24 -11 -34
-18 -12 -3 9 -6 9 -12 0 -4 -7 -2 -12 3 -12 6 0 11 -7 11 -16 0 -8 -4 -13 -9
-9 -5 3 -12 1 -16 -5 -3 -5 -1 -10 5 -10 6 0 9 -4 5 -10 -3 -5 -13 -7 -23 -4
-12 4 -13 3 -4 -3 10 -7 7 -20 -12 -56 -29 -54 -58 -100 -67 -107 -4 -3 -9
-14 -11 -25 -2 -11 -9 -19 -16 -18 -7 2 -9 -4 -5 -14 4 -10 2 -14 -4 -10 -6 4
-10 -1 -9 -11 0 -9 -4 -16 -11 -15 -7 2 -10 -4 -7 -12 4 -8 1 -15 -6 -15 -6 0
-8 -4 -5 -10 3 -5 2 -10 -2 -10 -5 0 -14 -12 -21 -27 -26 -58 -48 -94 -55 -88
-4 3 -5 2 -2 -1 2 -4 -3 -20 -12 -37 -13 -26 -16 -68 -15 -247 0 -118 1 -215
2 -215 0 0 2 -23 3 -52 1 -28 -1 -49 -5 -47 -4 2 -3 -10 3 -28 11 -41 11 -41
-3 -32 -6 4 -8 3 -5 -3 4 -6 9 -27 12 -47 3 -27 1 -35 -8 -30 -9 5 -9 4 0 -6
9 -9 9 -19 2 -33 -8 -14 -8 -18 0 -13 7 4 11 -1 11 -13 0 -12 -4 -21 -10 -21
-5 0 -10 -5 -10 -11 0 -5 4 -8 8 -5 5 3 9 -11 10 -30 1 -19 -2 -33 -7 -30 -4
3 -8 -1 -8 -9 0 -8 4 -12 9 -9 9 6 5 -32 -4 -42 -4 -3 -2 -14 4 -24 9 -14 9
-22 -1 -33 -6 -9 -8 -18 -3 -21 12 -7 13 -168 1 -183 -6 -7 -6 -13 0 -17 13
-8 11 -80 -2 -88 -9 -6 -9 -8 1 -8 6 0 12 -8 12 -17 0 -10 4 -14 8 -8 9 13 32
17 32 6 0 -5 -6 -11 -12 -14 -7 -2 -1 -4 13 -3 19 1 25 5 21 16 -4 11 0 10 15
-3 21 -18 22 -18 32 0 6 10 11 12 11 6 0 -7 5 -13 11 -13 5 0 7 6 3 13 -5 7 0
6 11 -3 17 -13 18 -13 13 1 -4 9 -1 16 8 16 7 0 11 -5 7 -10 -3 -5 7 -1 23 9
27 17 28 17 15 1 -12 -15 -12 -17 3 -11 9 3 16 11 16 17 0 6 7 2 16 -9 8 -10
12 -13 8 -5 -9 18 13 30 43 25 16 -3 22 -1 18 6 -8 13 17 9 27 -5 4 -5 8 -1 8
10 0 17 2 17 10 5 5 -8 10 -10 10 -3 0 13 17 12 40 -2 12 -7 13 -6 3 7 -13 15
-8 28 9 28 5 0 6 -6 3 -12 -4 -7 0 -5 8 4 16 21 31 24 22 6 -4 -7 0 -5 8 4 9
12 17 14 25 8 7 -6 10 -7 7 -4 -6 10 19 32 41 36 10 2 25 9 32 16 17 15 46 16
36 0 -4 -7 -3 -8 5 -4 6 4 9 11 6 16 -3 4 3 14 12 21 11 10 14 10 9 2 -5 -9
-2 -11 8 -7 9 3 13 10 10 15 -5 9 9 13 34 10 6 -1 12 5 12 12 0 8 8 21 18 28
15 13 16 12 4 -3 -10 -12 -10 -18 -1 -24 8 -4 9 -3 5 4 -4 7 -2 12 3 12 6 0
11 7 11 16 0 11 6 14 20 9 15 -5 18 -3 14 8 -3 8 0 18 7 23 8 5 10 3 5 -7 -4
-8 0 -5 9 6 14 17 17 18 26 5 9 -13 10 -13 6 1 -3 9 1 26 10 38 11 17 18 19
28 11 12 -10 13 -8 10 10 -4 19 -2 20 12 8 13 -10 15 -10 9 0 -5 8 4 25 21 46
25 27 34 31 54 24 22 -7 22 -7 6 6 -19 14 -7 33 13 21 6 -4 10 -3 9 2 -4 21 2
43 12 43 5 0 7 -5 3 -12 -4 -7 -3 -8 5 -4 9 6 9 11 -1 24 -12 14 -10 14 12 2
21 -10 23 -10 13 1 -18 19 -16 34 2 19 13 -11 14 -10 9 5 -6 14 -4 16 7 10 11
-7 12 -6 2 6 -9 11 -8 18 1 32 7 9 17 17 21 17 4 0 3 -6 -3 -13 -7 -8 -8 -18
-1 -27 8 -12 9 -11 7 5 -2 12 2 19 10 17 10 -2 10 2 2 18 -8 14 -8 20 0 20 6
0 8 5 4 12 -4 7 -3 8 4 4 7 -4 13 -1 13 8 3 30 4 34 13 43 5 4 6 3 3 -3 -4 -7
0 -14 8 -17 10 -4 12 -1 8 10 -5 12 -2 14 8 9 8 -4 5 0 -6 10 -20 16 -20 16 3
11 12 -3 20 -1 17 3 -3 5 -1 11 4 15 6 3 7 13 4 22 -5 12 -3 14 8 8 11 -7 11
-5 -1 10 -12 15 -12 17 -1 10 11 -6 13 -4 8 8 -4 11 -1 17 8 17 8 0 15 5 15
11 0 5 -6 7 -12 3 -10 -6 -10 -5 -1 8 7 8 9 19 5 23 -4 5 -1 5 6 1 7 -4 9 -12
6 -18 -4 -7 -2 -8 4 -4 9 5 9 13 0 29 -11 21 -10 21 7 7 10 -8 16 -10 12 -3
-9 14 2 45 14 37 15 -9 10 3 -8 22 -17 17 -17 17 4 12 17 -4 20 -2 16 10 -4
10 -2 13 5 8 6 -3 13 -2 16 3 7 11 -13 9 -32 -3 -11 -7 -12 -4 -2 13 6 12 16
18 22 15 6 -4 8 -3 4 4 -3 5 0 13 6 16 7 3 2 3 -12 0 l-25 -5 25 15 c14 9 19
15 13 16 -7 0 -13 5 -13 11 0 5 6 7 13 3 7 -5 6 0 -3 11 -14 17 -13 18 5 11
15 -5 17 -4 8 5 -8 8 -9 19 -3 35 6 14 5 26 -1 29 -5 4 -7 11 -3 16 3 5 10 7
15 3 5 -3 7 -9 4 -14 -3 -5 0 -12 6 -16 8 -4 9 -3 5 4 -4 7 -1 12 6 12 11 0
11 2 0 8 -7 5 -14 25 -16 45 -2 20 0 35 4 32 5 -3 7 -14 5 -25 -2 -11 0 -22 4
-24 11 -7 8 58 -4 66 -6 4 -2 8 8 8 9 0 17 4 17 10 0 5 -8 7 -17 3 -17 -6 -17
-5 -1 13 17 17 17 19 0 38 -9 11 -12 16 -5 13 18 -11 22 16 5 36 -14 16 -14
17 -1 12 20 -7 19 26 0 49 -12 14 -12 16 0 11 10 -4 14 5 14 34 1 22 -2 39 -5
39 -20 -2 -21 4 -4 17 15 12 16 14 2 9 -13 -4 -16 -1 -13 15 2 11 0 23 -5 26
-8 5 -5 43 5 73 3 7 -5 17 -18 22 -19 8 -10 15 15 11 4 0 5 6 1 15 -5 13 -7
13 -15 2 -6 -9 -8 -6 -7 12 2 43 0 52 -13 44 -8 -5 -7 0 2 11 8 10 10 16 4 12
-6 -3 -16 4 -21 16 -11 24 -6 50 8 42 5 -3 1 7 -8 24 -10 16 -21 27 -25 25 -3
-2 -10 1 -14 7 -4 7 -3 9 3 6 6 -4 13 0 16 8 4 10 1 12 -11 8 -15 -6 -15 -5
-3 10 12 16 12 17 -5 10 -17 -6 -18 -5 -4 12 9 11 10 16 3 11 -8 -4 -13 -2
-13 4 0 6 -6 8 -12 5 -7 -4 -4 1 7 11 20 16 20 16 -3 11 -12 -3 -20 -1 -17 3
3 5 1 11 -4 15 -6 3 -7 13 -4 22 4 10 2 14 -5 9 -7 -4 -9 2 -6 18 2 14 -1 28
-8 32 -8 5 -9 2 -5 -9 3 -9 1 -19 -5 -23 -6 -4 -8 -3 -4 4 3 6 2 13 -4 17 -7
4 -7 12 0 25 7 13 7 21 0 25 -6 4 -7 12 -4 18 4 7 4 9 -1 5 -13 -12 -34 11
-28 30 4 15 3 15 -6 2 -8 -11 -11 -12 -11 -2 0 7 -4 10 -10 7 -5 -3 -10 1 -10
10 0 9 4 14 8 11 5 -3 9 2 9 10 0 10 -4 11 -11 4 -15 -15 -26 -12 -26 6 0 8 4
13 9 9 5 -3 12 -1 15 4 7 11 -13 9 -33 -3 -10 -6 -12 -5 -7 2 4 7 2 12 -5 12
-8 0 -8 4 1 15 7 9 10 18 6 22 -3 3 -6 2 -6 -4 0 -6 -8 -14 -17 -17 -10 -4
-14 -4 -10 0 4 4 2 13 -4 20 -6 8 -8 21 -5 30 5 13 4 14 -7 6 -11 -9 -19 -6
-36 12 -14 15 -19 26 -12 31 6 3 11 12 11 18 0 8 -3 8 -8 2 -4 -5 -13 -11 -21
-13 -11 -2 -12 0 -3 11 16 19 4 29 -21 16 -12 -7 -17 -7 -13 -1 3 6 3 12 -1
15 -5 2 -2 2 5 0 7 -1 10 2 7 7 -3 6 -15 10 -26 10 -19 0 -23 10 -19 40 1 10
-3 9 -14 -5 -16 -20 -16 -20 -22 3 -3 12 -9 22 -13 23 -36 4 -69 19 -43 19 7
0 12 5 12 10 0 6 -14 8 -32 5 -23 -4 -29 -2 -18 4 8 5 19 7 25 5 5 -3 2 1 -7
9 -10 8 -14 18 -10 23 4 4 -1 3 -10 -4 -14 -11 -18 -10 -28 5 -11 17 -11 17
-6 0z m452 -455 c-6 -5 -36 23 -36 34 0 4 9 -1 20 -11 11 -10 18 -20 16 -23z
m118 -258 c5 -14 4 -15 -9 -4 -17 14 -19 20 -6 20 5 0 12 -7 15 -16z m-21
-949 c-3 -9 -8 -14 -10 -11 -3 3 -2 9 2 15 9 16 15 13 8 -4z m-68 -154 c3 -5
2 -12 -3 -15 -5 -3 -9 1 -9 9 0 17 3 19 12 6z"/>
<path d="M2215 2660 c-3 -5 -1 -10 4 -10 6 0 11 5 11 10 0 6 -2 10 -4 10 -3 0
-8 -4 -11 -10z"/>
<path d="M704 2635 c-4 -8 -10 -15 -16 -15 -5 0 -7 4 -4 8 3 5 -1 9 -9 9 -10
0 -11 -5 -5 -17 11 -21 4 -31 -18 -23 -11 5 -13 2 -8 -8 4 -8 0 -5 -9 6 -16
20 -16 19 -11 -6 3 -22 1 -26 -15 -22 -11 3 -19 0 -19 -6 0 -7 5 -9 10 -6 6 3
10 4 10 1 0 -3 -10 -10 -21 -17 -17 -9 -20 -8 -14 2 5 8 4 10 -3 5 -7 -4 -12
-14 -12 -22 0 -8 -5 -14 -11 -14 -5 0 -7 5 -3 12 4 6 3 8 -4 4 -6 -3 -9 -16
-7 -27 3 -16 1 -18 -9 -10 -10 8 -17 7 -26 -4 -7 -8 -9 -15 -4 -15 4 0 -1 -6
-11 -14 -11 -8 -23 -12 -27 -10 -14 9 -19 -18 -6 -33 7 -9 9 -14 3 -11 -10 6
-37 -16 -29 -25 2 -2 -3 -10 -12 -18 -15 -12 -16 -11 -10 11 6 21 5 22 -4 7
-7 -10 -9 -24 -7 -32 3 -7 -3 -22 -13 -33 -10 -11 -16 -23 -12 -26 3 -4 -2 -4
-13 0 -14 6 -17 4 -12 -9 3 -9 -2 -26 -14 -39 -11 -13 -17 -16 -13 -8 4 9 3
12 -2 7 -5 -5 -9 -16 -9 -25 0 -9 -6 -16 -14 -14 -12 3 -12 1 0 -14 13 -15 11
-16 -11 -11 -14 4 -19 4 -12 1 10 -5 8 -12 -8 -29 -14 -15 -18 -25 -11 -30 6
-3 11 -11 11 -16 0 -6 -5 -7 -11 -3 -6 4 -10 -1 -8 -12 3 -24 -10 -54 -24 -54
-5 0 -2 9 8 20 16 18 16 20 2 20 -10 0 -16 -3 -16 -7 1 -5 0 -10 -1 -13 -7
-19 -7 -39 1 -35 5 4 6 -1 3 -9 -7 -19 -24 -21 -24 -4 0 6 -2 9 -5 6 -9 -9 7
-38 17 -32 5 3 3 -7 -6 -24 -8 -16 -12 -33 -8 -37 4 -5 1 -5 -5 -1 -9 5 -13
-1 -13 -22 0 -20 -7 -33 -22 -41 -13 -6 -15 -9 -5 -7 9 3 17 3 17 -1 0 -3 -8
-12 -17 -20 -10 -8 -12 -12 -5 -8 19 10 14 -6 -10 -32 -15 -17 -19 -26 -11
-34 8 -8 13 -7 18 2 5 8 4 10 -3 5 -7 -4 -12 -3 -12 3 0 6 10 15 21 22 17 9
20 8 13 -3 -5 -7 -9 -20 -9 -28 0 -8 -3 -19 -6 -25 -4 -5 -6 -22 -5 -37 1 -23
-1 -25 -19 -16 -18 10 -19 10 -5 -6 16 -21 23 -49 9 -40 -5 3 -6 10 -3 16 4 7
2 8 -5 4 -7 -5 -8 -13 -2 -23 4 -9 6 -25 3 -36 -4 -15 -2 -18 9 -12 12 8 12 6
1 -8 -16 -19 -23 -79 -8 -70 6 4 6 -1 2 -13 -5 -10 -8 -25 -7 -31 3 -31 2 -39
-3 -61 -3 -13 -1 -20 5 -17 5 4 7 10 4 15 -3 5 -2 11 3 14 4 2 8 -8 7 -24 0
-15 -4 -26 -9 -23 -4 3 -5 -5 -1 -17 6 -17 4 -21 -6 -14 -11 6 -12 5 -2 -8 7
-8 10 -18 6 -21 -3 -4 1 -7 10 -7 20 0 22 -11 5 -28 -9 -9 -8 -12 8 -12 14 0
16 -2 5 -9 -10 -7 -11 -9 0 -13 16 -5 20 -49 5 -67 -8 -11 -8 -13 1 -8 6 4 14
3 17 -2 4 -5 -2 -12 -11 -14 -14 -4 -15 -5 -2 -6 9 0 21 -13 28 -29 10 -23 9
-25 -2 -10 -8 10 -17 15 -20 11 -4 -3 3 -14 14 -24 12 -10 22 -30 22 -44 0
-13 3 -22 7 -20 4 3 10 -2 14 -10 3 -8 0 -17 -6 -21 -7 -5 -8 -2 -3 6 5 9 4
11 -3 6 -19 -11 -14 -26 9 -26 16 0 19 -4 14 -21 -4 -12 -3 -19 2 -16 5 3 15
-3 22 -15 7 -11 8 -17 2 -13 -6 3 -11 1 -11 -4 0 -6 3 -11 8 -11 10 0 42 -58
42 -77 0 -8 11 -24 24 -34 16 -13 23 -27 21 -41 -3 -11 -2 -18 2 -15 7 8 40
-29 48 -54 4 -11 11 -19 17 -19 5 0 8 -7 5 -15 -4 -8 -1 -17 5 -21 7 -4 8 -3
4 4 -4 7 -2 12 3 12 6 0 11 -9 11 -19 0 -11 5 -23 12 -27 7 -5 9 -2 4 7 -4 8
1 3 12 -11 11 -13 19 -27 17 -30 -7 -12 33 -40 55 -40 6 0 9 -3 9 -7 -3 -19 2
-33 12 -33 5 0 7 6 3 12 -5 10 -3 10 7 0 12 -11 12 -14 -1 -23 -12 -9 -11 -10
4 -5 14 5 27 -1 44 -21 13 -15 27 -26 30 -23 4 3 11 -5 17 -17 5 -13 13 -23
18 -23 4 0 5 5 1 12 -4 7 -3 8 4 4 7 -4 12 -15 13 -24 0 -9 3 -12 5 -5 4 8 11
7 24 -4 10 -9 16 -21 13 -26 -3 -6 -1 -7 5 -4 15 10 43 -3 35 -16 -4 -7 0 -8
11 -4 14 6 17 3 12 -8 -3 -10 -2 -13 4 -10 12 8 70 -16 70 -29 0 -4 7 -6 15
-3 8 4 17 2 21 -4 6 -10 47 -29 71 -33 7 -1 16 -6 20 -11 4 -4 2 -5 -6 0 -10
6 -12 4 -7 -4 6 -9 11 -9 24 1 14 11 15 10 9 -6 -7 -17 -6 -17 10 -5 9 8 14 9
10 3 -4 -7 0 -15 9 -18 8 -3 12 -10 9 -16 -3 -6 1 -7 10 -4 14 6 14 8 -2 19
-10 8 -15 17 -10 21 4 4 7 2 7 -5 0 -7 5 -9 10 -6 6 3 13 -1 16 -10 6 -13 8
-14 15 -3 7 10 9 8 9 -6 0 -16 2 -16 16 -5 12 10 17 10 23 0 4 -6 12 -11 17
-10 30 5 64 -3 64 -15 0 -8 4 -18 10 -21 5 -3 7 0 4 8 -8 22 9 27 31 10 20
-16 20 -16 0 -9 -16 6 -17 5 -8 -5 10 -10 16 -9 31 4 21 20 32 22 32 6 0 -5
-6 -7 -12 -3 -7 4 -9 3 -5 -1 12 -14 37 -15 37 -2 0 8 3 7 9 -1 7 -12 12 -12
30 0 16 9 21 20 18 40 -2 16 1 28 6 28 5 0 5 6 -1 13 -7 8 -7 18 -2 27 5 8 6
18 4 22 -3 5 -8 20 -10 35 -5 24 -3 25 13 12 16 -12 17 -12 6 1 -7 9 -12 25
-12 35 -1 11 -1 28 -1 38 0 9 0 25 -1 35 0 9 0 37 1 62 0 57 0 58 -4 100 -2
21 3 43 13 55 15 18 15 19 0 7 -14 -10 -16 -6 -14 42 0 30 8 62 16 73 13 16
12 17 -2 5 -15 -11 -16 -6 -16 50 1 35 6 66 12 70 7 5 7 8 0 8 -6 0 -11 9 -12
20 -1 12 3 18 9 14 7 -4 7 0 -1 13 -6 11 -7 23 -3 27 3 4 0 11 -8 16 -10 6
-11 10 -3 10 7 0 10 7 6 17 -5 12 -3 14 8 9 8 -4 6 -1 -3 6 -15 13 -15 15 0
26 9 7 11 10 5 7 -7 -3 -13 -1 -13 4 0 6 6 11 13 11 8 0 7 3 -3 10 -8 5 -11
12 -7 16 4 4 2 13 -4 21 -12 14 0 18 17 5 5 -4 1 1 -9 11 -11 9 -15 17 -10 17
5 0 9 9 10 20 1 13 -2 18 -10 13 -8 -4 -8 -1 1 9 10 13 10 17 0 21 -8 3 -5 6
6 6 20 1 20 1 0 17 -10 8 -14 13 -7 10 6 -4 14 -2 18 4 3 5 -2 10 -12 11 -10
0 -13 3 -6 6 10 3 10 10 1 26 -10 20 -10 21 6 8 14 -12 16 -12 10 3 -3 9 -10
16 -14 16 -9 0 -8 20 3 36 3 6 3 14 0 18 -10 10 -13 37 -3 31 5 -3 12 0 16 6
4 7 3 9 -3 6 -6 -4 -16 0 -22 7 -9 11 -9 16 0 22 8 5 9 3 4 -6 -5 -9 -4 -11 3
-6 18 11 15 15 -14 27 -26 9 -26 10 -8 30 16 18 16 19 1 13 -22 -8 -55 31 -51
62 2 17 -2 21 -14 16 -15 -5 -15 -4 -3 11 8 10 11 20 7 24 -3 3 -6 0 -6 -7 0
-8 -13 6 -29 30 -15 25 -25 50 -20 55 4 6 1 19 -7 29 -7 10 -11 23 -7 29 3 6
1 7 -6 3 -9 -6 -8 -14 4 -34 l16 -27 -20 24 c-12 12 -18 27 -15 32 3 5 0 9 -5
9 -6 0 -11 9 -11 21 0 13 -4 18 -12 13 -6 -4 -8 -3 -5 3 4 6 0 16 -8 23 -10 9
-12 17 -5 30 7 14 6 17 -8 16 -9 0 -17 6 -17 14 0 8 -6 19 -12 23 -15 10 -17
37 -3 37 6 0 10 5 10 11 0 8 -4 8 -14 0 -17 -14 -32 2 -20 21 4 6 3 8 -2 5 -6
-3 -15 3 -22 13 -7 12 -8 21 -2 25 6 3 10 12 10 18 0 7 -4 6 -10 -3 -10 -16
-11 -15 -28 23 -7 16 -10 33 -7 38 3 5 -2 6 -11 2 -11 -4 -15 -3 -10 5 3 6 2
13 -4 17 -6 4 -8 10 -5 15 3 4 -2 10 -10 14 -8 3 -12 12 -9 21 4 10 2 15 -7
13 -16 -4 -19 24 -4 34 5 4 0 8 -12 8 -13 0 -23 5 -23 11 0 5 4 8 8 5 5 -3 9
1 9 8 0 8 -6 12 -13 9 -6 -2 -15 1 -20 8 -4 7 -3 10 4 6 6 -5 8 1 5 14 -4 16
-8 17 -14 7 -6 -9 -9 -7 -9 10 0 12 -4 22 -8 22 -4 0 -25 34 -46 75 -21 41
-42 78 -48 81 -5 3 -5 11 2 19 7 9 6 16 -7 26 -17 13 -17 13 -3 -5 9 -12 10
-17 3 -12 -20 11 -36 46 -21 42 7 -1 10 -1 5 1 -4 3 -5 8 -2 13 3 4 -3 7 -13
6 -17 -1 -18 3 -9 34 2 8 2 12 0 8 -9 -15 -25 -8 -19 8 3 8 2 13 -2 11 -9 -6
-33 19 -25 27 4 3 -1 6 -11 6 -9 0 -19 -7 -22 -15z m-187 -160 c0 -8 -4 -12
-9 -9 -5 3 -6 10 -3 15 9 13 12 11 12 -6z m-33 -40 c-7 -17 -34 -21 -34 -4 0
5 4 8 9 4 5 -3 12 -1 16 5 9 15 15 12 9 -5z m-210 -300 c-4 -8 -11 -15 -16
-15 -6 0 -5 6 2 15 7 8 14 15 16 15 2 0 1 -7 -2 -15z m-137 -820 c0 -8 -4 -12
-9 -9 -5 3 -6 10 -3 15 9 13 12 11 12 -6z m368 -775 c3 -6 -1 -7 -9 -4 -18 7
-21 14 -7 14 6 0 13 -4 16 -10z"/>
<path d="M2336 2613 c-6 -14 -5 -15 5 -6 7 7 10 15 7 18 -3 3 -9 -2 -12 -12z"/>
<path d="M2517 2438 c19 -21 31 -25 14 -5 -6 8 -9 16 -6 19 3 2 -2 5 -10 5
-13 0 -13 -3 2 -19z"/>
<path d="M861 2438 c-1 -21 15 -32 25 -17 4 7 3 9 -4 5 -6 -3 -13 2 -15 11 -4
16 -5 16 -6 1z"/>
<path d="M2070 2400 c0 -5 5 -10 10 -10 6 0 10 5 10 10 0 6 -4 10 -10 10 -5 0
-10 -4 -10 -10z"/>
<path d="M2560 2401 c0 -6 4 -13 10 -16 6 -3 7 1 4 9 -7 18 -14 21 -14 7z"/>
<path d="M372 2339 c2 -7 -2 -13 -9 -14 -6 0 -14 -3 -18 -7 -4 -3 0 -5 9 -4
24 3 40 22 27 31 -7 3 -10 1 -9 -6z"/>
<path d="M2040 2340 c-9 -6 -10 -10 -3 -10 6 0 15 5 18 10 8 12 4 12 -15 0z"/>
<path d="M917 2329 c7 -7 15 -10 18 -7 3 3 -2 9 -12 12 -14 6 -15 5 -6 -5z"/>
<path d="M320 2260 c-9 -6 -10 -10 -3 -10 6 0 15 5 18 10 8 12 4 12 -15 0z"/>
<path d="M1935 2140 c-3 -5 -2 -10 4 -10 5 0 13 5 16 10 3 6 2 10 -4 10 -5 0
-13 -4 -16 -10z"/>
<path d="M1735 2061 c-3 -5 -2 -12 3 -15 5 -3 9 1 9 9 0 17 -3 19 -12 6z"/>
<path d="M1716 2013 c-6 -14 -5 -15 5 -6 7 7 10 15 7 18 -3 3 -9 -2 -12 -12z"/>
<path d="M2820 1916 c0 -3 9 -10 20 -16 11 -6 20 -8 20 -6 0 3 -9 10 -20 16
-11 6 -20 8 -20 6z"/>
<path d="M1187 1819 c7 -7 15 -10 18 -7 3 3 -2 9 -12 12 -14 6 -15 5 -6 -5z"/>
<path d="M1616 1818 c3 -5 10 -6 15 -3 13 9 11 12 -6 12 -8 0 -12 -4 -9 -9z"/>
<path d="M124 1732 c-13 -8 -15 -44 -2 -36 5 4 7 9 4 12 -3 3 -1 11 5 19 13
14 10 17 -7 5z"/>
<path d="M2876 1713 c-6 -14 -5 -15 5 -6 7 7 10 15 7 18 -3 3 -9 -2 -12 -12z"/>
<path d="M1549 1698 c-29 -25 -41 -46 -29 -53 6 -4 10 -3 9 2 -4 20 2 27 12
13 9 -12 10 -12 5 4 -4 12 0 24 11 32 10 7 15 14 12 14 -3 0 -12 -6 -20 -12z"/>
<path d="M2883 1683 c15 -4 16 -7 5 -21 -12 -15 -11 -16 4 -3 20 15 15 32 -10
30 -15 -1 -15 -2 1 -6z"/>
<path d="M1285 1659 c-4 -6 -5 -12 -2 -15 2 -3 7 2 10 11 7 17 1 20 -8 4z"/>
<path d="M1337 1543 c-3 -5 4 -15 16 -23 21 -12 21 -12 7 6 -8 10 -15 20 -16
22 -1 2 -4 -1 -7 -5z"/>
<path d="M130 1200 c5 -10 6 -20 3 -24 -3 -3 -2 -6 4 -6 6 0 10 10 9 23 0 13
-6 24 -13 24 -8 0 -9 -6 -3 -17z"/>
<path d="M2856 1193 c-6 -14 -5 -15 5 -6 7 7 10 15 7 18 -3 3 -9 -2 -12 -12z"/>
<path d="M171 1044 c0 -11 3 -14 6 -6 3 7 2 16 -1 19 -3 4 -6 -2 -5 -13z"/>
<path d="M313 755 c0 -8 4 -12 9 -9 5 3 6 10 3 15 -9 13 -12 11 -12 -6z"/>
<path d="M356 687 c3 -10 9 -15 12 -12 3 3 0 11 -7 18 -10 9 -11 8 -5 -6z"/>
<path d="M2471 506 c-17 -18 -19 -26 -10 -31 7 -5 10 -4 5 3 -3 6 6 20 20 31
15 12 22 21 17 21 -5 0 -20 -11 -32 -24z"/>
<path d="M2399 448 c-5 -18 -6 -38 -1 -34 7 8 12 36 6 36 -2 0 -4 -1 -5 -2z"/>
<path d="M624 399 c-4 -7 -3 -9 4 -5 5 3 13 0 15 -6 4 -9 6 -10 6 -1 1 17 -16
25 -25 12z"/>
<path d="M2070 219 c0 -5 5 -7 10 -4 6 3 10 8 10 11 0 2 -4 4 -10 4 -5 0 -10
-5 -10 -11z"/>
</g>
</svg>
